<svg xmlns="http://www.w3.org/2000/svg" viewBox="0 0 1824.62 1824.62"><path d="M1752.89 557.17a915.83 915.83 0 00-196.43-290.88c-83.75-83.75-181.29-148.6-289.94-194.55A906.72 906.72 0 00911.37 0a932.32 932.32 0 00-155.64 13v224.87a712.94 712.94 0 01155.64-17c190.63 0 364.25 77.71 489.45 202.91s202.91 297.88 202.91 488.5a688.33 688.33 0 01-40.58 233.47c-96 266.71-351.49 458-650.84 458a689.18 689.18 0 01-156.58-18.44v226a917 917 0 00156.58 13.38c123.11 0 242.61-24.13 355.15-71.73a911 911 0 00557.16-840.58c0-123.18-24.13-242.67-71.73-355.21z" fill="#068695"/><path d="M1233.15 591.47c-82.2-82.19-195.68-133.1-320.84-133.1a451.14 451.14 0 00-233.47 64.78c-131.69 79.31-220.07 223.53-220.46 388.06v792.68l.43.25a912.88 912.88 0 00220 90.35v-232.4l.11-166.9h-.11v-249.41l.42-.42h-.15l.15-233v-1.1c.6-128 104.9-232 233-232a233.31 233.31 0 01233 233c0 128.51-104.54 233-233 233h-156.5v220.9h156.58c165 0 309.68-88.48 389.17-220.48a451.23 451.23 0 0064.78-233.47c0-125.05-50.91-238.54-133.11-320.74z" fill="#eee"/><path d="M380.68 1145.78h-120C235 1071.2 220.9 993.38 220.9 912.31c0-299.35 191.23-555.68 457.94-651.65V30.13A913.64 913.64 0 0030 1145.36l.12.42a913.1 913.1 0 0090.59 220.48h260z" fill="#09c0d5"/></svg>